<?xml version="1.0" encoding="utf-8"?>
<!-- Generator: Adobe Illustrator 16.0.4, SVG Export Plug-In . SVG Version: 6.00 Build 0)  -->
<!DOCTYPE svg PUBLIC "-//W3C//DTD SVG 1.1//EN" "http://www.w3.org/Graphics/SVG/1.1/DTD/svg11.dtd">
<svg version="1.1" id="logo" xmlns="http://www.w3.org/2000/svg" xmlns:xlink="http://www.w3.org/1999/xlink" x="0px" y="0px"
	 width="2261.272px" height="1133.771px" viewBox="0 0 2261.272 1133.771" enable-background="new 0 0 2261.272 1133.771"
	 xml:space="preserve">
<g id="dwarf">
	<g id="uVrWQK.tif">
		<g>
			<path fill="#FFFFFF" stroke="#4A4A4A" stroke-miterlimit="10" d="M241.342,703.229c-3.002,6.918-5.076,13.43-8.48,19.146
				c-5.333,8.953-11.63,17.327-17.4,26.025c-6.623,9.982-6.582,23.47,4.293,31.599c6.036,4.512,12.771,7.7,20.424,8.599
				c1.646,0.193,3.236,0.87,5.507,1.509c-2.783,3.553-5.121,6.298-7.197,9.229c-13.755,19.42-24.809,40.287-33.776,62.331
				c-9.539,23.444-15.456,47.547-14.528,73.021c0.365,10.021,1.431,19.866,8.333,28.036c10.235,12.115,23.767,19.159,38.423,23.718
				c11.589,3.604,23.731,5.427,35.887,8.098c-0.528,0.799-1.364,1.965-2.099,3.191c-6.324,10.565-4.129,19.032,6.654,24.503
				c16.46,8.351,34.281,10.345,52.702,7.615c7.458-1.104,14.992-3.688,22.767,0.303c3.635,1.863,8.364,2.064,12.617,2.167
				c11.446,0.271,22.962,0.817,34.339-0.109c13.467-1.098,26.915-3.113,40.194-5.652c18.094-3.459,33.269-13.481,48.536-23.157
				c10.877-6.896,21.329-14.632,34.027-18.146c9.23-2.555,18.496-5.007,27.634-7.863c11.323-3.542,15.946-13.001,12.705-24.418
				c-2.609-9.189-9.567-15.383-14.979-22.63c-1.827-2.444-2.607-4.312-0.457-6.898c5.305-6.376,7.217-14.115,8.139-22.084
				c1.182-10.196-7.33-22.195-17.271-24.401c-3.187-0.707-3.656-1.782-3.221-5.069c1.606-12.12,3.047-24.297,3.684-36.498
				c0.28-5.36,0.726-10.089,3.166-15.139c8.953-18.522,15.704-37.879,19.708-58.142c0.273-1.38,2.19-3.167,3.619-3.474
				c12.266-2.627,23.098-7.849,32.4-16.367c6.175-5.656,8.029-13.06,7.587-20.67c-0.47-8.052-4.589-15.047-9.491-21.534
				c-9.975-13.2-20.117-26.307-29.348-40.019c-4.135-6.145-7.859-13.156-7.715-21.077c0.11-6.111,1.004-12.206,1.254-18.319
				c0.235-5.74,0.457-11.161,4.877-15.818c2.892-3.047,5.025-7.021,6.781-10.904c8.284-18.322,13.416-37.47,12.018-57.715
				c-1.032-14.938-6.578-27.964-19.229-37.245c-12.288-9.016-26.653-12.292-41.067-15.467c-21.66-4.771-43.383-9.256-65.021-14.133
				c-4.802-1.082-9.352-3.287-14.419-5.121c11.602-11.217,10.442-25.049-1.657-34c-4.202-3.109-8.226-6.461-11.343-8.922
				c6.727-10.29,13.798-20.063,19.743-30.48c6.718-11.771,12.142-24.186,14.168-37.856c1.231-8.312,2.869-16.591,4.828-24.765
				c2.459-10.26,6.167-20.264,8.021-30.613c3.068-17.127,0.443-33.791-8.001-49.091c-7.804-14.141-18.219-26.283-32.805-33.688
				c-14.56-7.39-30.21-9.381-46.491-6.717c-3.084,0.504-6.629-0.854-9.78-1.899c-7.195-2.39-14.096-6.085-21.451-7.476
				c-10.031-1.896-20.376-2.107-30.579-3.122c-1.603-0.159-3.417-0.351-4.698-1.192c-7.711-5.062-15.311-10.07-21.511-17.287
				c-10.583-12.317-22.226-23.716-33.121-35.773c-12.083-13.371-25.688-25-40.758-34.683c-18.201-11.693-37.825-19.11-60.185-16.068
				c-13.983,1.902-25.032,7.75-30.152,21.602c-4.322,11.695-2.241,23.523,2.072,34.54c9.163,23.403,12.378,47.687,12.669,72.527
				c0.37,31.466,0.405,62.936,0.87,94.399c0.115,7.751,0.802,15.59,2.25,23.191c0.861,4.525,0.128,7.516-2.69,11.058
				c-7.979,10.025-14.234,21.57-14.483,34.264c-0.26,13.302-4.259,25.686-5.774,38.562c-1.777,15.104-0.23,29.848,10.088,42.32
				c1.201,1.452,2.201,3.411,2.457,5.25c2.111,15.209,8.066,28.895,16.055,41.834c2.031,3.289,2.813,6.533-0.127,10.025
				c-6.93,8.228-13.628,16.65-20.433,24.983c-9.743,11.934-20.198,23.359-29.083,35.899c-13.631,19.239-20.186,40.66-15.143,64.497
				c2.899,13.706,9.625,25.095,21.745,32.527c19.129,11.731,39.55,13.284,60.824,6.818c1.548-0.47,3.754-0.774,4.969-0.032
				c11.455,6.993,23.618,9.038,36.71,6.149c1.085-0.24,3.181,0.348,3.531,1.126C227.681,698.873,233.057,702.123,241.342,703.229z"
				/>
			<path stroke="#4A4A4A" stroke-miterlimit="10" d="M241.342,703.229c-8.286-1.104-13.662-4.354-16.688-11.07
				c-0.352-0.778-2.446-1.366-3.531-1.126c-13.092,2.889-25.255,0.843-36.71-6.149c-1.214-0.742-3.42-0.438-4.969,0.032
				c-21.274,6.466-41.695,4.913-60.824-6.818c-12.12-7.433-18.846-18.822-21.745-32.527c-5.042-23.837,1.512-45.257,15.143-64.497
				c8.884-12.54,19.34-23.966,29.083-35.899c6.805-8.333,13.502-16.757,20.433-24.983c2.939-3.492,2.158-6.736,0.127-10.025
				c-7.989-12.939-13.944-26.625-16.055-41.834c-0.255-1.84-1.256-3.799-2.457-5.25c-10.318-12.474-11.865-27.218-10.088-42.32
				c1.515-12.875,5.514-25.26,5.774-38.562c0.249-12.693,6.504-24.238,14.483-34.264c2.819-3.542,3.553-6.532,2.691-11.058
				c-1.448-7.603-2.135-15.439-2.25-23.191c-0.465-31.463-0.5-62.934-0.87-94.399c-0.292-24.84-3.507-49.124-12.669-72.527
				c-4.312-11.016-6.395-22.845-2.072-34.54c5.12-13.852,16.167-19.7,30.152-21.602c22.359-3.042,41.983,4.375,60.184,16.068
				c15.071,9.683,28.675,21.312,40.758,34.683c10.896,12.057,22.538,23.456,33.121,35.773c6.201,7.216,13.8,12.223,21.511,17.287
				c1.281,0.841,3.097,1.033,4.698,1.192c10.203,1.014,20.548,1.227,30.579,3.122c7.355,1.39,14.256,5.085,21.451,7.476
				c3.151,1.046,6.696,2.404,9.78,1.899c16.28-2.664,31.933-0.673,46.491,6.717c14.586,7.404,25.001,19.547,32.805,33.688
				c8.444,15.3,11.069,31.963,8.001,49.091c-1.854,10.35-5.562,20.354-8.021,30.613c-1.959,8.174-3.596,16.451-4.828,24.765
				c-2.026,13.672-7.45,26.085-14.168,37.856c-5.945,10.417-13.018,20.19-19.743,30.48c3.117,2.461,7.142,5.812,11.343,8.922
				c12.1,8.952,13.258,22.784,1.657,34c5.067,1.833,9.617,4.039,14.419,5.121c21.636,4.876,43.36,9.361,65.021,14.133
				c14.414,3.175,28.778,6.452,41.066,15.467c12.651,9.281,18.197,22.308,19.229,37.245c1.397,20.245-3.733,39.393-12.018,57.715
				c-1.756,3.884-3.891,7.856-6.782,10.904c-4.418,4.657-4.641,10.078-4.875,15.818c-0.25,6.113-1.145,12.208-1.256,18.319
				c-0.144,7.922,3.58,14.933,7.717,21.077c9.229,13.712,19.373,26.818,29.347,40.019c4.901,6.487,9.022,13.482,9.491,21.535
				c0.442,7.609-1.412,15.013-7.588,20.669c-9.301,8.519-20.135,13.739-32.399,16.367c-1.429,0.307-3.346,2.094-3.619,3.474
				c-4.003,20.263-10.755,39.619-19.708,58.142c-2.439,5.049-2.886,9.778-3.166,15.139c-0.637,12.201-2.077,24.378-3.684,36.498
				c-0.437,3.287,0.035,4.362,3.221,5.069c9.941,2.206,18.452,14.205,17.271,24.401c-0.922,7.969-2.834,15.708-8.14,22.084
				c-2.151,2.586-1.37,4.454,0.457,6.898c5.412,7.247,12.37,13.439,14.979,22.63c3.24,11.417-1.381,20.876-12.705,24.418
				c-9.137,2.856-18.403,5.31-27.633,7.863c-12.7,3.516-23.151,11.252-34.028,18.146c-15.267,9.676-30.442,19.698-48.536,23.157
				c-13.28,2.539-26.728,4.556-40.194,5.652c-11.377,0.928-22.893,0.382-34.339,0.109c-4.253-0.103-8.982-0.304-12.617-2.167
				c-7.774-3.989-15.308-1.406-22.767-0.303c-18.42,2.729-36.242,0.734-52.702-7.615c-10.783-5.471-12.978-13.938-6.654-24.504
				c0.734-1.227,1.571-2.393,2.099-3.19c-12.156-2.671-24.298-4.494-35.887-8.098c-14.657-4.559-28.188-11.603-38.423-23.718
				c-6.901-8.17-7.968-18.015-8.333-28.037c-0.928-25.475,4.989-49.577,14.528-73.021c8.968-22.044,20.021-42.91,33.776-62.331
				c2.076-2.931,4.414-5.675,7.197-9.229c-2.271-0.639-3.86-1.315-5.507-1.509c-7.654-0.897-14.388-4.087-20.424-8.599
				c-10.875-8.129-10.917-21.616-4.293-31.599c5.77-8.698,12.067-17.072,17.4-26.025
				C236.267,716.657,238.34,710.146,241.342,703.229z M317.869,416.795l-0.136-0.15c-2.718,4.084-5.547,8.1-8.135,12.265
				c-9.146,14.717-9.097,30.069-2.048,45.366c9.364,20.319,26.523,31.434,47.415,36.651c8.041,2.009,16.852,1.539,25.28,1.253
				c16.296-0.553,30.19-6.131,40.042-20.146c11.465-16.312,9.042-35.094-6.925-46.819c-7.997-5.873-16.5-11.051-24.595-16.797
				c-7.368-5.229-13.663-11.676-12.024-21.552c1.202-7.243,3.459-14.488,6.407-21.226c4.674-10.685,12.879-19.071,21.339-26.736
				c8.2-7.43,17.98-12.34,28.27-9.703c1.536,6.716,2.857,12.493,4.187,18.305c3.43-0.586,6.337-1.083,9.244-1.579
				c0.138,0.617,0.274,1.235,0.412,1.853c-3.412,1.491-6.822,2.982-11.555,5.052c4.866,1.038,8.102,1.729,11.334,2.418
				c0.008,0.504,0.016,1.009,0.024,1.513c-2.388,0.157-4.83,0.061-7.146,0.555c-1.794,0.383-4.224,1.054-4.982,2.388
				c-2.037,3.573-3.061,7.712-4.972,11.372c-4.451,8.525-9.24,16.857-17.158,22.812c-3.481,2.619-6.913,5.305-10.834,8.317
				c1.337,0.143,2.003,0.358,2.617,0.257c7.776-1.277,15.551-2.564,23.307-3.958c0.866-0.156,1.827-0.807,2.385-1.512
				c3.489-4.413,7.192-8.702,10.236-13.413c9.586-14.833,16.928-30.738,21.191-47.921c4.077-16.429,5.521-33.07,1.04-49.621
				c-4.881-18.031-14.205-33.735-26.718-47.559c-9.358-10.34-20.341-15.951-34.966-14.517c-13.601,1.333-27.068,2.264-39.438,8.852
				c-12.948,6.896-24.465,15.638-35.339,25.47c-12.162,10.998-24.92,21.335-37.387,31.998c-0.678,0.58-1.25,1.439-1.548,2.284
				c-4.585,12.984-14.054,20.77-27.041,23.843c-12.353,2.923-24.971,4.712-37.455,7.091c-10.204,1.944-19.952,5.227-27.838,12.238
				c-14.165,12.594-16.339,28.818-11.77,45.974c6.028,22.627,20.577,39.16,40.714,50.466c8.207,4.607,17.001,8.924,27.17,8.332
				c0-4.434-0.084-8.706,0.024-12.973c0.102-3.977,0.408-7.946,0.659-12.546c1.772,12.45,3.211,24.082,5.25,35.606
				c0.409,2.312,2.673,5.136,4.82,6.128c4.938,2.287,6.924,6.22,8.719,10.867c1.07,2.771,2.762,5.88,5.102,7.484
				c12.566,8.612,26.094,8.453,39.844,3.148c3.193-1.23,3.547-3.251,1.25-6.192c-3.422-4.381-6.292-9.188-9.512-13.733
				c-0.824-1.164-1.988-2.146-3.152-3c-4.559-3.343-10.017-5.871-13.629-10.018c-14.507-16.653-17.514-37.016-16.979-58.171
				c0.093-3.681-1.092-5.521-4.341-6.354c-2.991-0.767-6.023-1.373-9.038-2.049c0.02-0.284,0.04-0.568,0.059-0.853
				c1.992-0.265,3.984-0.527,6.462-0.854c-0.788-1.939-1.385-3.41-1.983-4.88c-0.383,0.466-0.767,0.931-1.15,1.396
				c4.298,3.351,8.727,6.547,12.871,10.078C287.952,413.985,299.972,424.72,317.869,416.795z M287.821,620.139
				c1.62,1.263,2.733,2.207,3.923,3.044c15.111,10.648,32.531,16.458,49.464,23.164c19.958,7.903,40.516,14.375,58.786,26.056
				c2.449,1.565,4.814,3.265,7.218,4.901c0.266-0.374,0.531-0.748,0.797-1.122c-19.393-19.255-43.143-33.069-64.282-50.188
				c6.949,3.48,13.458,7.545,19.869,11.756c21.222,13.939,42.282,28.047,58.32,48.298c15.241,19.245,24.479,40.192,18.816,65.307
				c-2.527,11.211-8.324,20.579-18.349,26.773c-2.245,1.387-4.91,2.093-8.536,3.589c12.203,6.462,22.278,6.213,31.633-3.012
				c-4.875,11.508-13.713,18.78-25.65,24.012c1.786,0.579,2.645,1.126,3.476,1.087c13.445-0.625,25.003-6.236,35.337-14.312
				c16.354-12.778,29.957-27.998,39.979-46.354c4.661-8.536,10.083-16.656,11.916-26.446c0.13-0.694,0.649-1.316,0.988-1.973
				c0.874,2.058,0.896,3.944,0.641,5.79c-0.252,1.816-0.788,3.592-1.199,5.386c38.996-44.308,54.255-94.868,39.977-153.257
				c0.647,0.045,1.296,0.091,1.944,0.136c2.17,6.776,4.34,13.554,6.949,21.708c1.85-8.788,0.239-16.021-1.075-23.182
				c-3.094-16.862-13.239-29.729-24.532-41.794c-12.797-13.67-27.414-25.259-43.869-34.051
				c-15.754-8.417-32.224-15.501-48.401-23.12c-3.063-1.443-6.241-2.647-9.196-3.891c-1.137,5.562-1.447,10.637-3.216,15.139
				c-9.039,23.021-28.271,31.648-50.919,33.37c-19.773,1.502-37.997-4.694-53.947-16.585c-3.108-2.318-5.09-1.796-7.929-0.242
				c-14.443,7.897-28.74,7.772-42.751-1.175c-1.142-0.729-2.222-1.556-3.628-2.545c-2.898,9.619-7.549,17.722-16.342,20.766
				c-7.265,2.515-8.776,6.839-8.984,13.212c4.622,2.229,6.877-0.694,8.821-3.866c6.385-10.417,16.062-13.104,27.18-10.784
				c12.768,2.666,18.387,12.003,11.135,23.261c-0.663,1.028-0.25,3.041,0.181,4.437c1.928,6.237,2.443,12.355-0.812,18.331
				c-1.645,3.02-3.331,6.016-5.315,9.595c10.042,4.504,12.607,13.802,13.014,23.272
				C299.663,604.232,296.688,613.306,287.821,620.139z M306.474,186.493c-12.293-13.056-23.992-25.82-36.079-38.204
				c-8.769-8.984-17.683-17.896-27.197-26.066c-13.636-11.709-28.368-21.835-46.325-26.02c-10.34-2.409-20.672-2.241-31.173-0.744
				c-9.952,1.419-17.384,6.065-21.912,14.897c-4.272,8.335-4.616,17.492-2.488,26.288c2.232,9.231,6.253,18.015,8.897,27.166
				c6.03,20.873,7.026,42.428,7.551,63.956c0.781,32.075,1.089,64.162,1.721,96.24c0.086,4.365,0.884,8.715,1.479,14.246
				c9.82-8.616,17.602-18.071,29.429-21.747c-39.66,28.207-47.503,55.874-47.549,71.165c2.166-2.053,3.867-4.458,5.575-6.857
				c4.586-6.442,10.388-12.265,10.355-21.03c-0.004-0.997,1.012-2.031,1.639-2.993c4.575-7.013,10.453-12.498,17.602-17.039
				c10.843-6.886,22.687-10.95,35.003-13.605c11.305-2.437,22.87-3.637,34.24-5.805c16.896-3.223,33.336-8.216,46.93-19.132
				c11.339-9.105,21.633-19.503,32.512-29.191c21.692-19.316,45.434-33.474,76.044-32.409c15.229,0.53,28.58,5.086,40.33,14.374
				c4.302,3.4,8.873,7.071,10.236,14.014c-3.587-2.9-6.414-5.185-9.24-7.47c13.142,15.421,18.333,34.384,25.241,54.248
				c1.421-3.324,2.845-5.396,3.153-7.622c0.749-5.409,1.42-10.897,1.322-16.339c-0.168-9.375,0.961-19.352-1.815-27.995
				c-8.933-27.794-28.568-45.039-57.305-50.514c-19.278-3.672-38.376-0.356-55.626,8.607c-14.306,7.434-27.545,16.986-40.961,26.038
				c-7.643,5.156-14.559,11.379-22.076,16.738c-3.152,2.248-7.013,3.501-10.552,5.207c-0.182-0.39-0.363-0.781-0.545-1.171
				c4.688-2.72,9.749-4.961,13.99-8.257c9.814-7.628,19.159-15.857,28.833-23.671c9.008-7.276,18.216-14.275,29.355-18.168
				c5.151-1.801,10.229-3.817,15.306-5.824c0.939-0.372,1.713-1.164,2.562-1.761c-0.695-0.837-1.261-1.861-2.122-2.461
				c-0.928-0.646-2.098-1.083-3.222-1.29c-9.229-1.696-18.462-3.393-27.718-4.944c-19.163-3.211-37.994-0.581-56.72,3.468
				c-2.246,0.485-4.409,1.336-6.635,1.926c-2.159,0.571-4.35,1.022-6.527,1.528c14.674-7.61,30.623-9.958,46.588-12.684
				c-21.492-9.997-42.93-5.01-64.413-0.641c7.72-4.703,16.362-6.027,25.096-6.762C288.041,187.442,296.85,187.074,306.474,186.493z
				 M526.54,774.387c0.634,0.575,1.269,1.15,1.903,1.726c-3.814,4.706-7.426,9.596-11.488,14.077
				c-6.546,7.222-12.848,14.816-20.262,21.057c-7.146,6.015-15.492,10.632-23.453,15.638c-6.698,4.21-13.376,8.559-20.478,11.989
				c-6.523,3.152-13.54,5.354-20.463,7.587c-3.189,1.029-4.334,2.781-3.85,5.832c1.651,10.41,2.741,20.96,5.221,31.172
				c2.327,9.587,7.892,16.368,19.399,15.203c2.052-0.208,4.404,1.124,6.4,2.161c2.598,1.35,4.916,3.223,7.463,4.68
				c5.856,3.351,11.715,6.707,17.694,9.828c4.585,2.393,9.491,4.186,14.017,6.676c7.844,4.315,19.972,2.415,25.838-4.229
				c3.596-4.072,2.496-8.81,2.862-13.599c1.214-15.829,3.315-31.59,4.968-47.388c0.65-6.216,2.772-12.508-0.104-18.887
				c-1.276,0.882-2.151,1.486-4.085,2.822c1.107-3.445,1.624-5.686,2.527-7.755c4.748-10.86,10.24-21.446,14.24-32.572
				c4.683-13.023,8.457-26.41,11.914-39.823c1.846-7.158,2.312-14.688,3.155-22.078c0.4-3.495-1.531-5.354-5.104-5.035
				c-1.955,0.174-4.086,0.264-5.781,1.107c-8.235,4.099-15.999,9.49-24.615,12.371c-7.216,2.413-11.852,10.067-20.676,9.125
				c-2.335-0.25-5.451,2.415-7.479,4.464c-7.235,7.314-14.248,14.858-21.176,22.471c-8.997,9.885-19.722,17.108-31.938,22.514
				c-7.823,3.462-15.702,2.955-23.781,2.568c-4.53-0.217-5.616-3.688-6.206-6.798c-0.184-0.967,3.277-2.771,5.213-3.956
				c2.149-1.315,4.463-2.36,6.705-3.523c-5.307-3.349-10.059-6.687-14.962-6.928c-8.68-0.428-12.721-5.109-15.523-12.215
				c-1.826-4.63-7.596-8.611-12.511-8.218c-7.901,0.632-15.838,1.229-23.646,2.527c-19.91,3.315-39.834,6.205-60.095,5.086
				c-6.109-0.338-12.229-0.894-18.28-1.793c-4.118-0.611-8.09-2.691-12.183-2.875c-6.361-0.283-7.936,2.144-6.844,8.371
				c1.396,7.957,2.099,16.1,4.244,23.845c2.412,8.711,5.465,17.377,9.409,25.495c3.9,8.025,9.261,15.342,14.055,23.089
				c-6.989-4.134-11.686-10.49-16.156-17.15c-1.156-1.723-3.081-4.086-4.685-4.111c-3.279-0.053-5.386,2.477-5.386,5.946
				c0.002,8.734-0.201,17.494,0.386,26.196c0.513,7.603,6.136,11.749,13.545,12.499c7.508,0.761,15.006,2.207,22.328,4.062
				c10.853,2.749,21.379,7.049,32.344,9.03c20.43,3.692,39.069,1.562,54.509-15.616c7.851-8.733,8.299-17.888,8.188-27.714
				c-0.052-4.596-3.194-9.084-4.441-13.753c-3.004-11.249-11.061-18.984-18.447-27.187c-4.898-5.439-10.008-10.691-15.022-16.027
				c0.128-0.229,0.256-0.459,0.384-0.689c3.445,2.393,6.89,4.784,10.335,7.176c0.405-0.179,0.81-0.355,1.214-0.534
				c-0.68-3.184-1.359-6.366-2.039-9.55c0.47-0.172,0.94-0.345,1.41-0.517c1.831,4.142,4.205,8.141,5.344,12.465
				c1.207,4.583,3.268,8.099,7.034,10.932c2.638,1.984,5.071,4.35,7.184,6.887c1.418,1.702,2.02,4.059,3.155,6.025
				c4.396,7.605,8.865,15.153,8.859,24.376c-0.003,4.436,2.036,6.042,6.688,5.021c6.931-1.521,13.866-3.099,20.671-5.091
				c3.116-0.912,5.891-4.031,8.886-4.128c8.46-0.275,15.248-4.652,22.107-8.347c11.31-6.091,22.243-12.959,32.892-20.155
				c4.4-2.976,7.654-7.646,11.432-11.544c0.442-0.456,0.864-0.945,1.361-1.334c3.412-2.665,7.156-4.992,10.195-8.027
				C517.807,784.604,522.073,779.394,526.54,774.387z M352.712,1025.342c0.048,0.442,0.097,0.887,0.146,1.327
				c6.058,0.528,12.107,1.366,18.174,1.525c19.117,0.504,38.162-0.5,56.928-4.408c8.553-1.781,17.269-3.438,25.38-6.538
				c15.533-5.938,29.555-14.896,43.344-24.116c9.74-6.513,20.148-11.401,31.547-14.286c7.701-1.947,15.354-4.149,22.894-6.648
				c7.881-2.612,11.401-9.539,7.683-16.939c-4.388-8.725-10.084-16.792-15.334-25.345c-4.859,3.403-8.888,6.224-12.916,9.044
				c-0.25-0.332-0.502-0.664-0.754-0.995c11.225-8.116,17.944-19.124,21.309-32.388c2.728-10.751-2.789-20.943-13.314-24.494
				c-2.999-1.012-4.74-0.812-5.173,2.812c-0.489,4.095-1.662,8.13-1.88,12.227c-0.188,3.499,0.507,7.054,0.916,10.572
				c0.137,1.175,1.177,2.544,0.822,3.432c-5.25,13.131-17.825,20.582-31.53,16.652c-9.837-2.82-19.093-8.282-27.998-13.586
				c-11.604-6.912-22.644-14.714-37.213-12.548c-10.75,1.598-19.583,6.687-26.647,14.822c-0.966,1.113-1.044,2.998-1.534,4.525
				c1.492,0.385,2.998,1.146,4.475,1.096c18.06-0.625,35.378,2.035,51.247,11.273c1.416,0.823,2.61,2.028,3.907,3.059
				c-0.227,0.537-0.452,1.074-0.678,1.612c-27.365-14.612-55.262-16.409-85-4.575c11.146,2.912,21.315,4.742,30.875,8.238
				c20.081,7.344,24.094,9.962,27.008,14.948c-1.647-0.776-2.806-1.25-3.895-1.85c-12.854-7.074-26.258-13.376-40.692-15.603
				c-19.094-2.946-38.133-0.514-56.269,6.418c-15.492,5.92-28.674,15.699-40.71,26.909c-4.122,3.841-7.425,8.663-8.369,15.577
				c12.242-3.112,23.847-4.159,35.478-1.512c-2.818,0.681-5.646,0.594-8.465,0.695c-12.182,0.44-24.335,1.495-34.897,8.248
				c-3.598,2.3-6.896,5.803-9.012,9.508c-3.032,5.312,0.084,11.348,7.044,14.871c17.311,8.762,35.795,8.623,54.418,6.614
				c5.4-0.582,10.748-1.818,16.053-3.044c3.596-0.831,7.077-2.163,10.608-3.271c0.186,0.387,0.372,0.775,0.558,1.164
				C358.398,1022.026,355.556,1023.685,352.712,1025.342z M409.163,783.651c1.803-2.951,2.632-6.169,4.204-6.585
				c12.368-3.276,18.33-12.459,21.305-23.598c4.824-18.056,1.837-35.305-7.388-51.578c-3.988-7.035-10.498-11.147-16.533-16.018
				c-10.9-8.795-22.91-15.612-35.618-21.218c-2.621-1.156-6.561-1.531-9.053-0.406c-14.747,6.654-29.209,13.934-43.838,20.856
				c-17.004,8.046-33.985,16.154-51.169,23.804c-7.614,3.389-15.485,3.584-22.639-1.941c-0.993-0.767-2.348-1.065-2.562-1.159
				c-5.115,9.778-9.799,19.356-15.066,28.603c-4.169,7.317-9.482,13.997-13.49,21.392c-3.331,6.147-2.555,12.486,2.334,17.986
				c7.763,8.732,17.919,11.459,29.047,11.428c3.711-0.011,7.849-5.013,7.938-8.819c0.062-2.597,0.012-5.196,0.012-8.712
				c-4.393,0-9.122-0.386-13.756,0.109c-4.631,0.494-9.168,1.871-13.747,2.861c4.979-6.437,11.929-8.277,18.973-7.711
				c11.003,0.885,22.009,2.481,32.836,4.661c21.842,4.396,43.497,3.157,65.217-0.622c9.435-1.643,18.916-3.662,28.432-4.018
				c10.218-0.38,19.618,1.896,23.828,13.637C400.033,781.069,403.914,785.121,409.163,783.651z M235.12,921.841
				c-0.123-0.538-0.245-1.077-0.368-1.615c15.718-7.52,32.445-11.518,49.665-13.969c17.331-2.467,34.627-3.479,52.101-0.317
				c-9.05-7.062-20.157-8.271-30.785-9.996c-11.079-1.799-22.41-2.289-33.655-2.741c-10.855-0.438-21.742-0.095-32.616-0.095
				c2.472-0.221,4.986-1.376,7.547-1.492c12.774-0.579,25.674-2.119,38.315-0.967c15.051,1.372,29.938,4.879,44.785,7.994
				c5.631,1.182,9.396,0.479,13.252-4.888c-0.439-0.198-0.854-0.55-1.262-0.542c-11.895,0.233-22.94-3.396-33.681-7.863
				c-13.187-5.483-26.97-7.518-41.05-8.522c-4.221-0.302-8.389-1.339-12.581-2.04c0.034-0.46,0.069-0.92,0.103-1.38
				c2.395-0.56,4.79-1.117,7.182-1.675c-6.163-12.396-7.307-25.022-2.792-37.087c4.251-11.36,6.26-22.014,1.046-33.322
				c-0.614-1.333-0.961-2.789-1.675-4.91c-8.299,13.045-12.684,26.283-14.55,40.463c-0.472-0.929-0.566-1.745-0.624-2.563
				c-0.999-14.297,4.684-26.586,11.803-38.35c2.174-3.592,3.303-6.896,0.836-11.969c-6.219,7.861-12.452,14.744-17.549,22.384
				c-11.869,17.79-21.889,36.593-29.76,56.558c-9.26,23.484-15.763,47.432-14.349,72.96c0.611,11.02,2.906,21.59,11.981,28.952
				c21.767,17.664,47.041,25.119,74.819,24.598c1.412-0.026,3.309-1.589,4.09-2.948c3.025-5.255,4.999-11.244,8.627-15.995
				c8.334-10.917,19.783-18.248,31.531-25.059c1.493-0.865,2.84-1.981,4.255-2.981c-0.251-0.615-0.503-1.229-0.754-1.845
				c-7.919,1.178-15.839,2.354-25.022,3.721c5.971-4.108,11.677-5.391,17.547-5.761c8.135-0.514,16.346-0.156,24.432-1.024
				c9.479-1.017,18.857-2.948,30.013-4.767c-4.438-3.988-7.76-7.592-11.667-10.375c-14.401-10.258-31.152-13.531-48.265-14.574
				c-9.028-0.55-18.173,0.944-27.271,1.396c-14.326,0.713-28.28,3.135-41.671,8.467C243.18,919.259,239.118,920.47,235.12,921.841z
				 M256.468,623.98c7.968-1.564,16.357-2.405,24.207-4.925c15.218-4.882,21.397-26.92,7.915-40.734
				c-8.624-8.836-20.324-9.079-31.637-5.542c-8.979,2.807-17.649,6.611-22.746,15.841c-2.273-5.365,7.785-7.308,2.5-13.345
				c3.734-0.717,7.942-0.86,11.603-2.352c10.27-4.183,20.637-6.014,31.622-3.666c1.208,0.258,3.211-0.148,3.907-1.008
				c8.726-10.761,8.461-27.177-6.442-32.998c-11.396-4.45-22.97-4.109-34.23,1.134c-3.294,1.535-6.665,2.907-10.001,4.354
				c-0.464-0.445-0.928-0.892-1.392-1.336c8.476-3.205,11.466-9.479,11.244-17.835c-1.631-0.134-3.317-0.271-6.325-0.518
				c2.262-1.223,3.351-1.826,4.453-2.405c5.903-3.102,12.231-5.606,17.607-9.445c6.558-4.683,7.91-12.594,8.157-19.945
				c0.191-5.665-8.243-11.114-15.064-11.418c-15.071-0.67-26.88,6.391-37.347,16.079c-12.497,11.565-14.794,26.274-12.602,42.5
				c0.874,6.464,1.054,13.407-0.344,19.711c-2.819,12.713-7.562,25.002-10.358,37.719c-3.384,15.393-5.502,31.042-0.499,46.646
				c3.481,10.858,7.64,20.851,20.832,23.291c6.928,1.28,17.997-2.08,20.84-7.337c-4.856-0.767-10.529,1.911-14.885-2.979
				c5.36,0,10.531,1.155,14.899-0.225c11.329-3.579,19.451-11.264,24.217-22.365C257.849,627.964,259.309,625.395,256.468,623.98z
				 M198.383,538.754c-4.107-17.602-0.311-32.566,11.975-45.362c11.842-12.333,26.145-19.281,44.71-20.19
				c-2.175-3.509-3.187-7.362-5.466-8.384c-5.813-2.604-12.432-3.382-18.304-5.884c-29.5-12.568-48.441-33.746-53.179-66.316
				c-2.523-17.354,3.231-31.305,16.865-42.018c9.8-7.7,21.812-9.362,33.588-11.162c12.886-1.969,26.058-2.556,37.934-8.729
				c7.116-3.698,13.017-8.631,16.191-17.512c-1.814,0.615-2.565,0.809-3.267,1.117c-17.01,7.506-35.176,10.438-53.355,12.983
				c-16.542,2.315-32.719,5.415-46.964,14.755c-6.861,4.499-13.363,9.436-16.8,18.964c5.69-3.443,10.293-6.229,14.896-9.016
				c-3.753,4.496-8.386,7.773-12.234,11.801c-15.162,15.871-25.287,34.136-27.363,56.552c-1.09,11.774-0.195,23.068,3.603,34.176
				c0.419,1.225,1.556,2.205,3.161,4.389c-0.818-15.549,2.452-30.708,7.709-35.213c-7.296,22.71-6.046,44.435,3.2,65.544
				C164.357,509.964,177.98,526.912,198.383,538.754z M165.86,521.066c-0.976,1.142-2.395,2.661-3.653,4.305
				c-4.027,5.256-7.832,10.691-12.019,15.815c-10.987,13.447-22.16,26.742-33.155,40.184c-0.837,1.022-1.461,2.888-1.136,4.074
				c1.061,3.872,2.606,7.61,4.188,12.02c2.454-2.205,4.125-3.707,6.577-5.91c-0.231,1.747-0.132,2.322-0.374,2.63
				c-5.323,6.773-5.331,7.304,0.303,13.514c0.655,0.722,1.857,1.122,2.189,1.926c0.608,1.473,1.335,3.271,1,4.696
				c-1.422,6.057-3.569,11.956-4.785,18.046c-1.608,8.06,1.235,12.087,9.207,14.432c0.313,0.092,0.458,0.756,1.199,2.076
				c-3.151-0.819-5.535-1.438-8.194-2.13c-0.807,8.41,4.416,11.87,10.571,14.98c-1.845-0.342-3.69-0.684-5.535-1.024
				c-0.36,0.533-0.72,1.064-1.08,1.598c5.268,5.798,10.711,11.448,15.749,17.44c4.088,4.862,8.891,6.512,15,5.123
				c5.432-1.235,10.911-2.263,17.489-3.61c-9.083-9.288-15.756-17.914-18.156-29.268c5.143,7.194,9.927,14.275,15.119,21.045
				c5.441,7.096,12.987,11.935,21.539,13.277c8.319,1.309,17.596,2.152,25.429-0.204c17.955-5.399,34.215-28.635,32.368-44.492
				c-5.877,4.942-11.762,9.134-16.68,14.254c-4.47,4.653-9.04,8.79-15.252,10.645c-9.738,2.908-19.152,2.57-26.418-5.464
				c-8.877-9.816-13.015-21.764-13.599-34.928c-0.903-20.346,4.016-39.71,10.004-58.896c0.402-1.289,0.263-2.746,0.376-4.125
				c-1.537,0.062-3.287-0.334-4.575,0.265c-6.808,3.157-11.956,8.277-15.816,14.628c-2.889,4.75-5.471,9.688-8.19,14.542
				c2.673-11.983,8.286-22.231,17.533-30.687c-3.442-0.371-6.6-0.541-9.507,0.233c-2.813,0.749-5.369,2.469-8.037,3.763
				c2.536-4.687,7.076-5.763,11.506-6.539c6.037-1.058,12.23-1.256,18.232-2.45c1.684-0.334,3.729-2.647,4.224-4.438
				c1.354-4.898-1.622-8.976-6.493-10.456c-2.246-0.683-4.583-1.673-6.372-3.142C179.689,533.11,172.946,527.157,165.86,521.066z
				 M499.104,750.748c0.222,0.36,0.442,0.72,0.664,1.08c2.805-0.771,5.766-1.194,8.389-2.37
				c12.507-5.609,24.701-11.99,37.445-16.973c9.144-3.575,18.879-5.898,28.551-7.742c4.451-0.85,9.376,0.792,14.086,1.303
				c-6.815,1.322-13.407,1.627-19.948,2.377c-1.231,0.142-3.112,1.968-3.24,3.17c-0.778,7.363-1.14,14.771-1.688,22.862
				c1.761-0.215,4.023,0.031,5.782-0.797c7.295-3.436,14.94-6.465,21.523-10.999c10.968-7.552,13.379-20.107,6.741-31.655
				c-2.941-5.117-6.75-9.742-10.247-14.53c-6.918-9.473-13.977-18.844-20.809-28.379c-3.11-4.341-5.817-8.972-8.873-13.729
				c-0.883,3.471-1.388,6.31-2.334,8.992c-1.754,4.967-3.347,10.06-5.756,14.709c-5.047,9.735-10.321,19.375-16.013,28.744
				c-3.289,5.414-7.544,10.246-11.417,15.3c-3.367,4.393-6.062,9.793-10.398,12.832
				C505.502,739.197,504.045,746.119,499.104,750.748z M228.877,688.153c2.439,8.123,5.803,11.336,14.744,9.45
				c12.188-2.568,24.686-5.714,35.714-11.267c18.551-9.34,36.059-20.756,53.982-31.338c2.13-1.258,4.116-2.759,6.527-4.39
				c-2.707-0.972-4.686-1.581-6.584-2.381c-5.715-2.405-11.47-4.733-17.078-7.371c-8.585-4.038-17.099-8.235-25.567-12.513
				c-4.428-2.235-7.425-7.812-13.923-4.938c-3.071,1.358-6.68,1.583-10.079,2.101c-4.315,0.658-7.61,4.277-6.948,8.423
				c1.583,9.913-1.191,19.067-5.066,27.857C249.351,673.692,240.471,682.378,228.877,688.153z M337.854,903.007
				c3.905,2.441,7.543,5.689,11.798,7.183c10.23,3.586,19.27,8.688,26.795,16.571c1.006,1.055,3.57,1.419,5.121,1.009
				c4.942-1.312,9.707-3.288,14.622-4.728c3.79-1.106,6.767-2.406,7.912-6.913c0.623-2.45,3.122-4.542,5.058-6.517
				c6.069-6.189,13.513-9.869,21.908-11.921c1.072-0.263,2.708-2.896,2.369-3.578c-6.565-13.208-8.806-27.313-9.437-41.845
				c-0.034-0.776-2.383-2.174-3.533-2.06c-5.083,0.508-10.112,1.539-15.181,2.234c-4.07,0.559-7.652,1.2-7.896,6.623
				c-0.106,2.354-1.387,4.769-2.532,6.946c-8.161,15.524-21.665,23.048-38.511,25.588c-2.044,0.31-4.23,0.937-5.924,2.06
				C346.497,896.266,342.83,899.264,337.854,903.007z M112.952,586.841c-8.466,15.298-14.441,30.269-14.061,47.479
				c0.597,27.005,21.938,46.936,48.591,49.69c-1.486-1.733-2.464-2.82-3.382-3.956c-4.538-5.609-9.104-11.197-13.568-16.867
				c-2.293-2.912-4.394-5.979-6.271-8.55c0.302-0.787,1.43-2.212,1.134-3.217c-1.235-4.192-1.647-8.381-2.079-12.733
				c-0.813-8.197,0.883-15.688,3.325-23.246c0.388-1.202,1.104-2.949,0.588-3.68c-2.128-3.004-4.673-5.713-7.169-8.653
				c-1.703,2.646-3.106,4.83-4.51,7.012c-0.535-0.107-1.071-0.214-1.605-0.321C121.503,601.985,116.886,595.017,112.952,586.841z
				 M566.249,596.03c1.207-2.438,2.854-4.757,3.546-7.333c3.371-12.568,7.503-25.05,9.454-37.854
				c2.938-19.286-1.826-36.475-18.115-49.123c-7.294-5.664-16.758-7.419-23.25-3.919c3.862,5.575,7.662,11.209,11.63,16.723
				c1.789,2.484,3.914,4.728,5.902,7.099c-2.936,2.238-1.336,8.55,3.206,10.481C556.523,553.948,565.259,574.352,566.249,596.03z
				 M447.586,471.268c-0.038-0.305-0.075-0.609-0.113-0.914c0.684,0.446,1.319,0.997,2.056,1.322
				c4.45,1.967,8.936,3.854,13.385,5.824c3.429,1.52,6.759,3.28,10.248,4.637c2.965,1.154,6.407,1.344,9.095,2.9
				c9.045,5.239,18.208,10.402,26.643,16.535c8.359,6.078,15.869,13.321,23.824,19.968c0.734,0.614,2.116,1.05,2.983,0.807
				c4.073-1.143,8.071-2.553,13.468-4.313c-4.707-5.975-9.14-11.599-13.566-17.227c-0.966-1.226-1.914-2.464-2.869-3.695
				c1.414-1.026,2.775-2.141,4.266-3.04c0.747-0.451,1.73-0.51,2.607-0.745c0.067-0.519,0.137-1.036,0.205-1.553
				C509.074,484.938,478.33,478.104,447.586,471.268z M449.167,447.558c-0.896-2.633-1.347-5.536-2.763-7.851
				c-5.178-8.467-12.955-14.068-21.781-18.186c-4.667-2.177-24.057,2.203-27.312,6.088c-0.562,0.67-0.019,3.317,0.826,3.93
				c3.212,2.325,6.831,4.077,10.164,6.249c9.4,6.124,17.774,13.102,21.217,24.513c0.408,1.354,3.229,3.018,4.717,2.832
				C441.773,464.193,448.669,455.546,449.167,447.558z M303.132,471.157c-0.921-3.677-2.067-6.554-2.307-9.503
				c-1.058-13.06,0.383-25.611,8.15-36.78c1.553-2.233,0.215-3.437-2.177-3.375c-7.215,0.187-13.605-2.272-19.563-6.046
				c-3.695-2.34-7.274-4.865-11.061-7.413C272.188,436.113,286.384,465.569,303.132,471.157z M387.241,421.334
				c5.674,2.534,10.865,0.006,15.302-2.93c14.196-9.392,23.084-22.93,28.67-38.82c0.903-2.568,0.244-3.875-2.236-5.011
				c-9.345-4.278-19.206-4.521-29.125-3.778c-4.757,0.356-11.074,7.555-11.588,12.316c4.47-3.625,9.451-6.723,15.21-4.228
				c5.742,2.487,8.862,7.768,8.686,13.98C411.783,405.976,403.376,420.708,387.241,421.334z M388.346,387.552
				c2.937,0.58,5.14,1.218,7.381,1.417c4.967,0.444,7.539,3.839,6.308,8.582c-0.374,1.438-0.644,2.903-1.005,4.346
				c-1.362,5.436-5.075,9.072-9.377,8.425c-5.267-0.792-4.792-5.312-5.316-9.189c-0.158-1.174-1.214-2.939-2.119-3.119
				c-1.132-0.224-2.99,0.559-3.734,1.522c-2.528,3.274-2.227,10.046,0.4,13.586c2.833,3.818,7.006,4.8,11.163,3.57
				c8.083-2.393,14.277-7.661,16.097-15.975c1.027-4.695,1.09-10.843-1.168-14.741C402.979,379.075,396.333,379.891,388.346,387.552
				z M256.322,529.342c1.919-0.092,3.135-0.204,4.35-0.199c8.746,0.032,17.107,1.52,24.634,6.354c1.089,0.7,2.898,1.622,3.646,1.187
				c1.026-0.598,1.937-2.424,1.864-3.664c-0.149-2.557-0.496-5.313-1.615-7.563C283.648,514.29,262.422,515.857,256.322,529.342z
				 M399.811,365.607c6.278,0,11.644,0.188,16.987-0.067c3.445-0.165,6.984-0.572,10.261-1.585c7.303-2.259,6.304-3.688,4.988-9.959
				c-1.113-5.316-4.415-2.749-6.814-2.654C414.536,351.763,407.263,358.215,399.811,365.607z M546.369,535.959
				c2.175-2.032,5.758-3.835,6.148-6.171c0.402-2.412-1.793-7.121-3.746-7.678c-4.12-1.173-8.803-0.224-12.019,3.473
				C539.713,528.777,542.573,531.863,546.369,535.959z M554.925,549.802c0.554-0.325,1.108-0.649,1.662-0.976
				c-0.708-4.438-1.417-8.875-2.246-14.068c-2.69,0.989-4.729,1.739-7.789,2.864C549.667,542.152,552.296,545.977,554.925,549.802z
				 M383.438,394.623c3.026,2.373,6.087,3.24,8.511,0.43c0.601-0.697-0.937-4.774-2.296-5.333
				C385.938,388.197,384.625,391.306,383.438,394.623z"/>
			<path fill="#FFFFFF" stroke="#4A4A4A" stroke-miterlimit="10" d="M287.821,620.139c8.867-6.833,11.842-15.906,11.43-25.51
				c-0.406-9.47-2.971-18.768-13.014-23.271c1.984-3.579,3.671-6.575,5.315-9.596c3.254-5.975,2.738-12.093,0.812-18.331
				c-0.431-1.396-0.844-3.407-0.181-4.437c7.252-11.257,1.633-20.594-11.135-23.26c-11.118-2.321-20.795,0.365-27.18,10.783
				c-1.943,3.172-4.199,6.095-8.821,3.866c0.208-6.373,1.719-10.696,8.984-13.212c8.793-3.044,13.444-11.146,16.342-20.766
				c1.406,0.99,2.486,1.815,3.628,2.545c14.011,8.948,28.308,9.073,42.751,1.175c2.839-1.553,4.82-2.076,7.929,0.242
				c15.95,11.891,34.174,18.087,53.947,16.585c22.648-1.721,41.88-10.349,50.919-33.37c1.768-4.502,2.08-9.576,3.216-15.138
				c2.955,1.243,6.132,2.447,9.196,3.89c16.179,7.619,32.646,14.703,48.401,23.12c16.454,8.792,31.073,20.381,43.868,34.051
				c11.293,12.065,21.439,24.934,24.533,41.794c1.314,7.16,2.924,14.396,1.075,23.183c-2.61-8.155-4.78-14.933-6.948-21.708
				c-0.648-0.045-1.297-0.091-1.945-0.137c14.277,58.39-0.98,108.949-39.977,153.258c0.411-1.793,0.947-3.57,1.199-5.387
				c0.256-1.846,0.232-3.731-0.641-5.79c-0.34,0.656-0.858,1.278-0.988,1.974c-1.833,9.79-7.255,17.91-11.916,26.446
				c-10.023,18.354-23.626,33.573-39.979,46.353c-10.336,8.076-21.893,13.687-35.338,14.312c-0.832,0.039-1.689-0.508-3.476-1.087
				c11.938-5.229,20.776-12.503,25.651-24.012c-9.354,9.226-19.431,9.476-31.634,3.012c3.626-1.495,6.292-2.201,8.536-3.589
				c10.023-6.194,15.821-15.562,18.348-26.772c5.662-25.115-3.574-46.062-18.815-65.308c-16.038-20.25-37.098-34.356-58.32-48.298
				c-6.412-4.211-12.92-8.274-19.869-11.756c21.139,17.119,44.889,30.935,64.282,50.189c-0.266,0.374-0.531,0.748-0.797,1.122
				c-2.404-1.638-4.769-3.336-7.218-4.902c-18.27-11.681-38.828-18.152-58.786-26.055c-16.933-6.706-34.353-12.517-49.464-23.164
				C290.556,622.345,289.441,621.401,287.821,620.139z"/>
			<path fill="#FFFFFF" stroke="#4A4A4A" stroke-miterlimit="10" d="M317.884,416.812c-17.913,7.907-29.932-2.827-42.13-13.22
				c-4.145-3.53-8.573-6.728-12.871-10.078c0.383-0.466,0.767-0.931,1.15-1.396c0.598,1.471,1.195,2.94,1.983,4.88
				c-2.478,0.328-4.47,0.591-6.462,0.854c-0.02,0.284-0.039,0.568-0.059,0.854c3.015,0.677,6.047,1.282,9.038,2.049
				c3.249,0.833,4.435,2.674,4.341,6.354c-0.535,21.155,2.472,41.518,16.979,58.171c3.613,4.146,9.071,6.675,13.629,10.018
				c1.164,0.854,2.328,1.836,3.152,3c3.22,4.545,6.09,9.354,9.512,13.733c2.298,2.941,1.944,4.962-1.25,6.192
				c-13.75,5.304-27.278,5.463-39.844-3.148c-2.34-1.604-4.031-4.714-5.102-7.484c-1.795-4.647-3.782-8.581-8.719-10.867
				c-2.146-0.994-4.411-3.816-4.82-6.128c-2.039-11.524-3.478-23.157-5.25-35.606c-0.25,4.6-0.557,8.57-0.659,12.546
				c-0.108,4.267-0.024,8.539-0.024,12.973c-10.169,0.592-18.963-3.725-27.17-8.332c-20.138-11.306-34.686-27.839-40.714-50.466
				c-4.57-17.155-2.396-33.38,11.77-45.974c7.886-7.012,17.634-10.294,27.838-12.238c12.484-2.378,25.103-4.167,37.455-7.091
				c12.987-3.073,22.455-10.858,27.041-23.844c0.298-0.844,0.87-1.703,1.548-2.283c12.466-10.663,25.225-21,37.387-31.998
				c10.874-9.833,22.392-18.575,35.339-25.47c12.369-6.588,25.836-7.519,39.438-8.852c14.625-1.434,25.605,4.177,34.966,14.517
				c12.513,13.824,21.837,29.528,26.718,47.559c4.48,16.551,3.037,33.193-1.04,49.621c-4.264,17.183-11.605,33.087-21.191,47.921
				c-3.044,4.71-6.748,9-10.236,13.413c-0.558,0.706-1.519,1.355-2.385,1.512c-7.756,1.393-15.531,2.682-23.307,3.958
				c-0.614,0.101-1.279-0.114-2.617-0.257c3.921-3.014,7.353-5.699,10.834-8.317c7.917-5.954,12.707-14.286,17.158-22.812
				c1.911-3.66,2.935-7.799,4.972-11.372c0.76-1.333,3.188-2.005,4.982-2.388c2.316-0.495,4.759-0.397,7.146-0.555
				c-0.009-0.504-0.017-1.009-0.024-1.513c-3.234-0.69-6.468-1.38-11.334-2.418c4.732-2.069,8.143-3.562,11.555-5.052
				c-0.138-0.617-0.274-1.235-0.412-1.853c-2.907,0.497-5.814,0.993-9.244,1.579c-1.329-5.812-2.65-11.589-4.187-18.305
				c-10.289-2.639-20.07,2.272-28.27,9.703c-8.46,7.665-16.665,16.052-21.339,26.736c-2.947,6.736-5.205,13.981-6.407,21.226
				c-1.639,9.876,4.656,16.323,12.024,21.552c8.095,5.746,16.598,10.924,24.595,16.797c15.967,11.726,18.391,30.507,6.925,46.819
				c-9.852,14.016-23.746,19.594-40.042,20.146c-8.428,0.286-17.24,0.755-25.28-1.253c-20.892-5.218-38.051-16.332-47.415-36.651
				c-7.049-15.298-7.099-30.648,2.048-45.366c2.588-4.165,5.417-8.18,8.127-12.272c5.746-3.915,12.208-7.151,18.275-2.177
				c4.123,3.381,6.563,8.862,9.577,13.52c0.993,1.535,1.428,3.432,2.118,5.163c-1.582-15.397-7.623-21.525-23.5-24.388
				c-0.733-3.837-1.483-7.762-2.187-11.441c4.246,1.455,8.138,3.388,12.238,4.068c8.677,1.441,15.643-3.425,21.548-8.488
				c12.51-10.727,19.896-25.056,24.475-40.684c1.05-3.583,2.573-3.739,5.453-3.881c3.21-0.159,6.387-1.014,9.579-1.566
				c-0.065-0.55-0.132-1.101-0.198-1.65c-4.208-0.217-8.417-0.433-12.625-0.648c5.444-3.903,12.621-4.207,16.708-11.869
				c-5.066,1.974-8.885,3.372-12.632,4.944c-3.282,1.377-4.391,0.655-5.304-3.08c-1.111-4.54-3.764-8.703-5.749-13.029l0.142,0.171
				c0.938-1.19,1.875-2.382,2.812-3.572c-0.106-0.498-0.212-0.996-0.319-1.494c-4.612,0.611-9.387,0.669-13.801,1.961
				c-7.405,2.168-14.746,4.833-19.804,11.29c-0.201,0.208-0.417,0.397-0.648,0.571c-10.081,6.38-16.531,15.863-21.247,26.396
				c-3.219,7.189-5.064,14.993-7.537,22.563c-2.825-2.871-5.091-5.486-3.951-10.61c1.226-5.508-5.974-17.959-13.671-18.387
				c11.304,11.343,12.961,14.407,11.292,20.879c-9.486-9.578-21.037-15.06-33.984-17.777c5.533,2.893,11.22,5.482,16.853,8.186
				c13.102,6.286,20.182,17.694,25.399,30.498C320.316,400.145,322.305,408.42,317.884,416.812z M343.265,304.85
				c0.43,0.477,0.86,0.953,1.29,1.43c1.987-1.032,4.114-1.864,5.936-3.136c4.611-3.219,8.806-7.139,13.688-9.84
				c5.695-3.15,11.767-5.915,18.001-7.704c5.329-1.529,9.453,1.729,12.565,6.149c0.274,0.389,2.736,0.043,3.19-0.63
				c3.063-4.546-0.267-13.124-5.612-14.688c-9.376-2.744-17.427,0.88-24.512,6.27c-7.735,5.886-14.794,12.664-22.1,19.106
				C344.748,302.656,344.073,303.828,343.265,304.85z M434.189,312.126c9.131-1.054,12.127,1.269,12.373,8.565
				c0.067,1.988,0.015,3.98,0.015,5.972c0.001,5.296,0,10.592,0,17.305c1.644-1.877,2.521-2.412,2.63-3.073
				c1.253-7.634,3.107-15.265,3.344-22.94c0.21-6.838-3.416-12.795-9.57-13.83c-2.188-0.368-5.084,0.864-6.979,2.276
				C434.793,307.302,434.833,309.875,434.189,312.126z M367.123,269.272c7.848-4.072,14.545-10.448,24.121-10.447
				C380.746,256.722,374.149,263.641,367.123,269.272z M454.227,304.094c0.594-8.945-4.947-16.406-10.589-15.042
				C451.143,290.758,450.893,297.987,454.227,304.094z"/>
			<path fill="#FFFFFF" stroke="#4A4A4A" stroke-miterlimit="10" d="M306.474,186.493c-9.624,0.581-18.433,0.949-27.21,1.688
				c-8.732,0.734-17.375,2.059-25.096,6.762c21.483-4.37,42.92-9.356,64.413,0.641c-15.965,2.725-31.914,5.073-46.588,12.684
				c2.177-0.504,4.368-0.957,6.527-1.528c2.226-0.589,4.39-1.44,6.635-1.926c18.727-4.049,37.557-6.679,56.72-3.468
				c9.256,1.551,18.488,3.248,27.718,4.944c1.124,0.207,2.294,0.643,3.222,1.29c0.861,0.6,1.427,1.624,2.122,2.461
				c-0.85,0.598-1.623,1.39-2.562,1.761c-5.077,2.007-10.154,4.023-15.306,5.824c-11.139,3.893-20.347,10.892-29.355,18.168
				c-9.674,7.813-19.018,16.043-28.833,23.671c-4.241,3.296-9.302,5.537-13.99,8.257c0.183,0.391,0.363,0.781,0.545,1.171
				c3.539-1.706,7.4-2.959,10.552-5.207c7.517-5.359,14.433-11.582,22.076-16.738c13.417-9.052,26.656-18.604,40.961-26.038
				c17.25-8.964,36.349-12.279,55.626-8.607c28.737,5.475,48.373,22.72,57.305,50.514c2.778,8.644,1.647,18.62,1.815,27.995
				c0.099,5.442-0.573,10.931-1.322,16.339c-0.31,2.226-1.731,4.298-3.153,7.622c-6.908-19.863-12.1-38.826-25.241-54.248
				c2.826,2.285,5.652,4.57,9.24,7.47c-1.364-6.943-5.936-10.614-10.237-14.014c-11.749-9.288-25.1-13.844-40.329-14.374
				c-30.611-1.065-54.353,13.093-76.044,32.409c-10.879,9.688-21.173,20.085-32.512,29.191
				c-13.593,10.916-30.032,15.91-46.93,19.132c-11.37,2.168-22.937,3.368-34.24,5.805c-12.316,2.655-24.16,6.72-35.003,13.605
				c-7.149,4.541-13.026,10.026-17.602,17.039c-0.627,0.961-1.643,1.996-1.639,2.993c0.032,8.767-5.77,14.588-10.356,21.03
				c-1.708,2.4-3.41,4.805-5.575,6.857c0.046-15.291,7.889-42.958,47.549-71.165c-11.827,3.676-19.609,13.131-29.429,21.747
				c-0.595-5.531-1.395-9.881-1.479-14.246c-0.632-32.079-0.94-64.165-1.721-96.24c-0.524-21.528-1.521-43.083-7.551-63.956
				c-2.645-9.151-6.665-17.935-8.897-27.166c-2.127-8.795-1.784-17.953,2.488-26.288c4.527-8.832,11.959-13.479,21.912-14.897
				c10.501-1.497,20.833-1.665,31.173,0.744c17.957,4.184,32.689,14.311,46.325,26.02c9.514,8.17,18.428,17.083,27.197,26.066
				C282.482,160.673,294.18,173.437,306.474,186.493z"/>
			<path fill="#FFFFFF" stroke="#4A4A4A" stroke-miterlimit="10" d="M526.54,774.387c-4.467,5.008-8.733,10.217-13.474,14.95
				c-3.039,3.035-6.783,5.363-10.195,8.027c-0.498,0.389-0.919,0.878-1.361,1.334c-3.777,3.896-7.031,8.568-11.432,11.544
				c-10.648,7.197-21.583,14.063-32.891,20.155c-6.86,3.694-13.648,8.07-22.108,8.347c-2.995,0.097-5.769,3.216-8.886,4.128
				c-6.806,1.992-13.74,3.57-20.671,5.091c-4.652,1.021-6.691-0.585-6.688-5.021c0.005-9.223-4.464-16.771-8.859-24.376
				c-1.136-1.967-1.737-4.324-3.155-6.025c-2.113-2.537-4.546-4.902-7.185-6.887c-3.768-2.833-5.827-6.349-7.034-10.932
				c-1.139-4.323-3.513-8.322-5.344-12.465c-0.47,0.172-0.94,0.345-1.41,0.518c0.681,3.183,1.359,6.365,2.039,9.549
				c-0.405,0.178-0.81,0.355-1.214,0.535c-3.445-2.393-6.89-4.784-10.335-7.177c-0.128,0.229-0.256,0.459-0.384,0.689
				c5.015,5.336,10.124,10.587,15.023,16.028c7.386,8.201,15.443,15.937,18.447,27.186c1.247,4.669,4.389,9.158,4.441,13.753
				c0.111,9.826-0.337,18.98-8.188,27.714c-15.439,17.178-34.079,19.309-54.509,15.616c-10.965-1.981-21.491-6.282-32.344-9.03
				c-7.322-1.854-14.82-3.301-22.328-4.062c-7.409-0.75-13.032-4.896-13.545-12.499c-0.587-8.702-0.384-17.462-0.386-26.196
				c0-3.47,2.107-5.999,5.386-5.946c1.604,0.025,3.529,2.389,4.685,4.111c4.47,6.66,9.167,13.019,16.156,17.15
				c-4.794-7.747-10.155-15.063-14.055-23.089c-3.944-8.117-6.997-16.784-9.409-25.495c-2.145-7.745-2.848-15.888-4.244-23.844
				c-1.092-6.229,0.482-8.654,6.844-8.371c4.093,0.183,8.065,2.263,12.184,2.875c6.049,0.898,12.169,1.453,18.28,1.792
				c20.261,1.118,40.186-1.771,60.095-5.085c7.808-1.301,15.745-1.896,23.646-2.528c4.915-0.395,10.686,3.588,12.511,8.218
				c2.802,7.105,6.843,11.787,15.523,12.215c4.904,0.242,9.656,3.579,14.962,6.929c-2.242,1.163-4.556,2.208-6.705,3.522
				c-1.937,1.186-5.396,2.989-5.213,3.956c0.59,3.11,1.676,6.582,6.206,6.798c8.08,0.386,15.958,0.895,23.781-2.567
				c12.216-5.406,22.939-12.63,31.938-22.515c6.928-7.61,13.94-15.154,21.176-22.471c2.027-2.049,5.144-4.714,7.479-4.464
				c8.825,0.943,13.46-6.712,20.676-9.125c8.617-2.881,16.38-8.272,24.615-12.371c1.695-0.844,3.828-0.933,5.782-1.107
				c3.573-0.318,5.504,1.541,5.104,5.035c-0.845,7.391-1.311,14.92-3.155,22.078c-3.457,13.413-7.23,26.8-11.914,39.823
				c-4,11.125-9.491,21.712-14.239,32.573c-0.905,2.068-1.42,4.309-2.528,7.754c1.934-1.336,2.809-1.94,4.085-2.822
				c2.878,6.379,0.755,12.671,0.104,18.887c-1.651,15.798-3.754,31.56-4.967,47.389c-0.367,4.788,0.731,9.524-2.863,13.598
				c-5.866,6.644-17.995,8.544-25.838,4.229c-4.525-2.49-9.432-4.282-14.017-6.676c-5.979-3.121-11.838-6.479-17.694-9.828
				c-2.547-1.457-4.865-3.33-7.463-4.68c-1.996-1.037-4.35-2.369-6.4-2.161c-11.508,1.165-17.072-5.616-19.399-15.203
				c-2.479-10.212-3.569-20.762-5.221-31.172c-0.484-3.051,0.66-4.803,3.85-5.832c6.923-2.232,13.938-4.435,20.464-7.587
				c7.101-3.431,13.778-7.778,20.477-11.989c7.961-5.005,16.308-9.623,23.453-15.638c7.414-6.24,13.715-13.835,20.262-21.057
				c4.062-4.481,7.674-9.371,11.488-14.077C527.809,775.537,527.174,774.961,526.54,774.387z M447.002,854.887
				c-3.175,6.141-1.156,11.807,2.069,16.967c4.225,6.761,9.927,9.258,17.389,7.56C450.959,877.415,450.684,865.118,447.002,854.887z
				"/>
			<path fill="#FFFFFF" stroke="#4A4A4A" stroke-miterlimit="10" d="M352.712,1025.342c2.843-1.656,5.686-3.314,8.529-4.972
				c-0.187-0.389-0.372-0.777-0.558-1.164c-3.532,1.107-7.012,2.439-10.608,3.271c-5.305,1.226-10.653,2.462-16.053,3.045
				c-18.623,2.008-37.107,2.146-54.418-6.615c-6.96-3.523-10.076-9.561-7.044-14.871c2.116-3.705,5.415-7.208,9.012-9.508
				c10.562-6.753,22.716-7.808,34.897-8.248c2.82-0.103,5.647-0.016,8.465-0.695c-11.631-2.648-23.236-1.602-35.478,1.512
				c0.944-6.914,4.247-11.736,8.369-15.576c12.037-11.211,25.219-20.99,40.71-26.91c18.136-6.932,37.175-9.364,56.269-6.418
				c14.435,2.227,27.838,8.527,40.692,15.603c1.089,0.601,2.247,1.072,3.894,1.851c-2.914-4.987-6.926-7.605-27.007-14.949
				c-9.56-3.496-19.729-5.326-30.875-8.238c29.738-11.834,57.636-10.037,85,4.575c0.226-0.538,0.452-1.075,0.677-1.612
				c-1.297-1.029-2.49-2.233-3.906-3.059c-15.869-9.238-33.188-11.898-51.247-11.273c-1.479,0.051-2.983-0.711-4.476-1.096
				c0.489-1.527,0.567-3.412,1.534-4.525c7.063-8.137,15.897-13.226,26.647-14.822c14.568-2.166,25.606,5.636,37.213,12.548
				c8.906,5.304,18.161,10.766,27.998,13.586c13.705,3.93,26.281-3.521,31.529-16.652c0.355-0.888-0.686-2.257-0.821-3.432
				c-0.409-3.52-1.104-7.073-0.916-10.572c0.218-4.096,1.391-8.131,1.88-12.226c0.433-3.625,2.175-3.825,5.173-2.813
				c10.524,3.551,16.042,13.743,13.313,24.494c-3.363,13.264-10.084,24.271-21.308,32.388c0.251,0.331,0.502,0.663,0.754,0.995
				c4.028-2.82,8.056-5.641,12.916-9.044c5.251,8.553,10.946,16.62,15.333,25.345c3.721,7.4,0.2,14.327-7.682,16.939
				c-7.539,2.499-15.192,4.701-22.893,6.648c-11.399,2.885-21.808,7.773-31.549,14.286c-13.789,9.219-27.811,18.181-43.343,24.116
				c-8.11,3.101-16.828,4.757-25.38,6.538c-18.766,3.908-37.811,4.912-56.928,4.408c-6.067-0.159-12.116-0.997-18.174-1.525
				C352.81,1026.229,352.761,1025.784,352.712,1025.342z"/>
			<path fill="#FFFFFF" stroke="#4A4A4A" stroke-miterlimit="10" d="M409.163,783.651c-5.249,1.47-9.13-2.582-10.732-7.05
				c-4.21-11.74-13.609-14.016-23.828-13.636c-9.516,0.354-18.998,2.375-28.432,4.018c-21.72,3.779-43.375,5.017-65.217,0.622
				c-10.827-2.18-21.833-3.776-32.836-4.661c-7.043-0.566-13.993,1.275-18.973,7.711c4.579-0.99,9.115-2.367,13.747-2.861
				c4.635-0.495,9.364-0.109,13.756-0.109c0,3.516,0.049,6.115-0.012,8.712c-0.089,3.807-4.227,8.809-7.938,8.819
				c-11.128,0.032-21.284-2.694-29.047-11.428c-4.89-5.5-5.666-11.839-2.334-17.986c4.007-7.396,9.32-14.073,13.49-21.392
				c5.268-9.246,9.951-18.824,15.066-28.603c0.215,0.094,1.569,0.393,2.562,1.159c7.153,5.526,15.024,5.331,22.639,1.941
				c17.184-7.649,34.165-15.758,51.169-23.805c14.628-6.922,29.091-14.201,43.838-20.855c2.493-1.125,6.433-0.75,9.053,0.406
				c12.708,5.605,24.717,12.423,35.618,21.218c6.035,4.87,12.544,8.98,16.533,16.018c9.225,16.273,12.212,33.522,7.388,51.578
				c-2.975,11.138-8.937,20.321-21.305,23.597C411.795,777.482,410.966,780.7,409.163,783.651z"/>
			<path fill="#FFFFFF" stroke="#4A4A4A" stroke-miterlimit="10" d="M235.12,921.841c3.999-1.371,8.061-2.582,11.983-4.143
				c13.392-5.332,27.345-7.754,41.671-8.467c9.098-0.452,18.243-1.946,27.271-1.396c17.113,1.043,33.864,4.316,48.265,14.574
				c3.907,2.783,7.229,6.387,11.667,10.375c-11.155,1.816-20.535,3.75-30.013,4.767c-8.086,0.868-16.297,0.512-24.432,1.024
				c-5.871,0.37-11.577,1.65-17.547,5.761c9.184-1.365,17.104-2.543,25.023-3.721c0.251,0.613,0.503,1.229,0.754,1.845
				c-1.415,1-2.762,2.116-4.255,2.981c-11.749,6.811-23.197,14.142-31.531,25.059c-3.628,4.751-5.602,10.74-8.627,15.995
				c-0.782,1.358-2.678,2.922-4.09,2.948c-27.778,0.521-53.052-6.934-74.819-24.598c-9.075-7.362-11.37-17.934-11.981-28.953
				c-1.414-25.527,5.089-49.476,14.349-72.96c7.872-19.964,17.892-38.767,29.76-56.557c5.097-7.64,11.33-14.523,17.549-22.384
				c2.467,5.072,1.337,8.377-0.836,11.969c-7.119,11.763-12.802,24.052-11.803,38.349c0.057,0.819,0.151,1.637,0.624,2.564
				c1.868-14.18,6.251-27.418,14.55-40.463c0.713,2.121,1.061,3.577,1.675,4.91c5.213,11.309,3.205,21.962-1.046,33.321
				c-4.516,12.065-3.371,24.69,2.792,37.088c-2.393,0.558-4.787,1.116-7.183,1.675c-0.034,0.46-0.068,0.92-0.103,1.38
				c4.192,0.701,8.36,1.738,12.581,2.04c14.08,1.005,27.863,3.039,41.05,8.522c10.74,4.467,21.786,8.097,33.681,7.863
				c0.408-0.008,0.822,0.345,1.262,0.542c-3.857,5.368-7.621,6.069-13.252,4.887c-14.847-3.114-29.733-6.623-44.785-7.994
				c-12.642-1.151-25.541,0.389-38.315,0.968c-2.561,0.115-5.075,1.271-7.547,1.491c10.874,0,21.76-0.342,32.616,0.096
				c11.246,0.452,22.577,0.941,33.655,2.741c10.627,1.727,21.734,2.934,30.785,9.995c-17.473-3.161-34.77-2.147-52.101,0.318
				c-17.219,2.451-33.947,6.449-49.665,13.969C234.875,920.764,234.997,921.303,235.12,921.841z"/>
			<path fill="#FFFFFF" stroke="#4A4A4A" stroke-miterlimit="10" d="M256.468,623.98c2.841,1.414,1.381,3.983,0.131,6.896
				c-4.767,11.103-12.888,18.787-24.217,22.365c-4.369,1.38-9.539,0.225-14.9,0.225c4.355,4.89,10.028,2.211,14.885,2.979
				c-2.843,5.257-13.912,8.617-20.84,7.337c-13.192-2.44-17.351-12.432-20.832-23.291c-5.003-15.603-2.886-31.252,0.499-46.646
				c2.796-12.717,7.539-25.006,10.358-37.719c1.398-6.305,1.218-13.248,0.344-19.711c-2.192-16.226,0.105-30.933,12.602-42.5
				c10.467-9.688,22.276-16.749,37.347-16.079c6.821,0.304,15.255,5.753,15.064,11.418c-0.247,7.352-1.6,15.263-8.157,19.945
				c-5.376,3.839-11.704,6.345-17.607,9.445c-1.102,0.579-2.191,1.184-4.453,2.405c3.008,0.246,4.693,0.384,6.325,0.518
				c0.222,8.355-2.768,14.63-11.244,17.835c0.464,0.444,0.928,0.891,1.392,1.336c3.336-1.447,6.707-2.819,10.001-4.354
				c11.26-5.243,22.834-5.584,34.23-1.134c14.903,5.82,15.168,22.237,6.442,32.998c-0.696,0.859-2.699,1.266-3.907,1.008
				c-10.984-2.348-21.352-0.517-31.622,3.666c-3.66,1.491-7.869,1.635-11.603,2.352c5.285,6.039-4.773,7.979-2.5,13.345
				c5.097-9.229,13.768-13.034,22.746-15.841c11.312-3.537,23.013-3.294,31.637,5.542c13.483,13.814,7.303,35.853-7.915,40.734
				C272.825,621.575,264.436,622.416,256.468,623.98z M271.738,613.87c-1.343-0.418-2.688-0.836-4.283-1.333
				c1.853-2.58,3.217-4.48,5.006-6.972c-7.183,5.224-13.635,9.917-19.927,14.491C259.41,621.316,264.46,613.417,271.738,613.87z"/>
			<path fill="#FFFFFF" stroke="#4A4A4A" stroke-miterlimit="10" d="M198.383,538.754c-20.402-11.842-34.026-28.79-43.1-49.505
				c-9.247-21.109-10.496-42.834-3.2-65.544c-5.257,4.505-8.527,19.664-7.709,35.213c-1.604-2.184-2.742-3.164-3.161-4.389
				c-3.798-11.106-4.693-22.401-3.603-34.176c2.076-22.416,12.201-40.681,27.362-56.552c3.849-4.026,8.48-7.305,12.234-11.801
				c-4.604,2.786-9.207,5.572-14.896,9.016c3.438-9.528,9.939-14.465,16.8-18.964c14.245-9.341,30.422-12.439,46.964-14.755
				c18.18-2.545,36.346-5.478,53.355-12.983c0.7-0.31,1.451-0.502,3.267-1.117c-3.174,8.88-9.075,13.813-16.191,17.512
				c-11.876,6.172-25.048,6.759-37.934,8.729c-11.776,1.799-23.788,3.461-33.588,11.162c-13.634,10.713-19.388,24.665-16.865,42.018
				c4.737,32.572,23.679,53.748,53.179,66.316c5.873,2.502,12.491,3.28,18.304,5.884c2.279,1.021,3.291,4.875,5.466,8.384
				c-18.565,0.91-32.868,7.857-44.71,20.19C198.072,506.188,194.276,521.152,198.383,538.754z"/>
			<path fill="#FFFFFF" stroke="#4A4A4A" stroke-miterlimit="10" d="M165.86,521.066c7.086,6.091,13.83,12.044,20.775,17.749
				c1.789,1.469,4.126,2.459,6.372,3.142c4.871,1.48,7.846,5.558,6.493,10.456c-0.495,1.789-2.54,4.103-4.224,4.438
				c-6.002,1.194-12.196,1.393-18.232,2.45c-4.43,0.776-8.97,1.854-11.506,6.539c2.668-1.293,5.224-3.014,8.037-3.763
				c2.907-0.773,6.065-0.604,9.507-0.233c-9.248,8.455-14.86,18.703-17.533,30.687c2.719-4.854,5.301-9.792,8.19-14.542
				c3.861-6.351,9.009-11.471,15.817-14.628c1.289-0.599,3.038-0.202,4.575-0.265c-0.113,1.379,0.025,2.836-0.376,4.125
				c-5.988,19.187-10.907,38.551-10.004,58.896c0.584,13.164,4.722,25.111,13.599,34.928c7.266,8.034,16.68,8.372,26.418,5.464
				c6.212-1.854,10.782-5.989,15.252-10.645c4.918-5.12,10.803-9.312,16.68-14.254c1.847,15.857-14.413,39.093-32.368,44.492
				c-7.833,2.356-17.109,1.512-25.429,0.204c-8.551-1.344-16.096-6.182-21.539-13.277c-5.192-6.77-9.977-13.851-15.119-21.045
				c2.399,11.354,9.073,19.979,18.156,29.268c-6.578,1.349-12.059,2.375-17.489,3.61c-6.109,1.389-10.912-0.261-15-5.123
				c-5.038-5.992-10.481-11.644-15.749-17.44c0.36-0.533,0.72-1.064,1.08-1.598c1.845,0.341,3.689,0.683,5.535,1.024
				c-6.156-3.111-11.378-6.571-10.571-14.98c2.66,0.69,5.043,1.311,8.194,2.13c-0.742-1.32-0.886-1.984-1.199-2.076
				c-7.971-2.345-10.815-6.372-9.207-14.432c1.215-6.09,3.363-11.989,4.785-18.046c0.334-1.426-0.392-3.225-1-4.696
				c-0.333-0.804-1.534-1.204-2.189-1.926c-5.634-6.209-5.626-6.74-0.303-13.514c0.242-0.308,0.143-0.883,0.374-2.63
				c-2.452,2.204-4.123,3.705-6.577,5.91c-1.581-4.409-3.127-8.146-4.188-12.02c-0.325-1.187,0.299-3.051,1.136-4.074
				c10.995-13.441,22.167-26.736,33.155-40.184c4.187-5.124,7.991-10.56,12.019-15.815
				C163.466,523.729,164.885,522.208,165.86,521.066z"/>
			<path fill="#FFFFFF" stroke="#4A4A4A" stroke-miterlimit="10" d="M499.104,750.748c4.94-4.629,6.397-11.551,12.461-15.802
				c4.334-3.04,7.03-8.44,10.397-12.833c3.874-5.054,8.128-9.886,11.417-15.299c5.691-9.369,10.966-19.009,16.012-28.744
				c2.41-4.65,4.004-9.743,5.756-14.709c0.947-2.684,1.453-5.522,2.334-8.993c3.057,4.757,5.764,9.387,8.873,13.729
				c6.832,9.535,13.891,18.906,20.81,28.379c3.497,4.788,7.305,9.414,10.247,14.53c6.639,11.548,4.227,24.104-6.741,31.655
				c-6.583,4.534-14.229,7.562-21.524,10.999c-1.758,0.828-4.021,0.582-5.781,0.797c0.548-8.091,0.908-15.499,1.688-22.862
				c0.127-1.202,2.01-3.028,3.24-3.17c6.541-0.75,13.133-1.055,19.948-2.377c-4.71-0.512-9.636-2.151-14.087-1.303
				c-9.67,1.843-19.406,4.167-28.551,7.742c-12.744,4.982-24.938,11.364-37.444,16.973c-2.623,1.176-5.584,1.601-8.39,2.37
				C499.547,751.468,499.326,751.107,499.104,750.748z"/>
			<path fill="#FFFFFF" stroke="#4A4A4A" stroke-miterlimit="10" d="M228.877,688.153c11.594-5.775,20.474-14.461,25.721-26.366
				c3.875-8.791,6.648-17.945,5.066-27.857c-0.662-4.146,2.633-7.766,6.948-8.423c3.398-0.518,7.008-0.742,10.079-2.101
				c6.498-2.875,9.495,2.702,13.923,4.938c8.469,4.277,16.982,8.475,25.568,12.513c5.608,2.638,11.363,4.966,17.078,7.372
				c1.899,0.799,3.878,1.409,6.584,2.38c-2.411,1.631-4.396,3.132-6.527,4.39c-17.923,10.582-35.431,21.998-53.982,31.338
				c-11.028,5.553-23.527,8.698-35.714,11.268C234.68,699.489,231.316,696.276,228.877,688.153z"/>
			<path fill="#FFFFFF" stroke="#4A4A4A" stroke-miterlimit="10" d="M337.854,903.007c4.975-3.743,8.642-6.741,12.57-9.345
				c1.694-1.123,3.879-1.75,5.924-2.059c16.846-2.54,30.35-10.063,38.511-25.589c1.145-2.178,2.426-4.592,2.532-6.946
				c0.244-5.422,3.826-6.064,7.896-6.623c5.069-0.696,10.098-1.727,15.181-2.234c1.15-0.115,3.5,1.282,3.533,2.061
				c0.631,14.53,2.871,28.636,9.437,41.844c0.338,0.683-1.297,3.314-2.369,3.578c-8.396,2.052-15.838,5.73-21.908,11.921
				c-1.937,1.975-4.435,4.065-5.058,6.517c-1.146,4.507-4.123,5.807-7.912,6.913c-4.915,1.438-9.679,3.414-14.622,4.728
				c-1.551,0.41-4.115,0.046-5.121-1.009c-7.525-7.883-16.564-12.985-26.795-16.571C345.398,908.696,341.76,905.448,337.854,903.007
				z"/>
			<path fill="#FFFFFF" stroke="#4A4A4A" stroke-miterlimit="10" d="M112.952,586.841c3.934,8.176,8.551,15.146,0.993,22.959
				c0.535,0.107,1.071,0.214,1.605,0.321c1.404-2.184,2.807-4.365,4.51-7.012c2.497,2.94,5.042,5.649,7.169,8.653
				c0.517,0.729-0.2,2.478-0.588,3.68c-2.442,7.558-4.139,15.048-3.325,23.245c0.432,4.354,0.844,8.542,2.079,12.734
				c0.296,1.005-0.832,2.431-1.134,3.217c1.877,2.571,3.978,5.638,6.271,8.55c4.464,5.669,9.031,11.257,13.568,16.867
				c0.918,1.136,1.896,2.222,3.382,3.956c-26.653-2.756-47.995-22.687-48.591-49.69C98.511,617.109,104.486,602.139,112.952,586.841
				z"/>
			<path fill="#FFFFFF" stroke="#4A4A4A" stroke-miterlimit="10" d="M566.249,596.03c-0.99-21.679-9.726-42.082-7.627-63.929
				c-4.542-1.932-6.142-8.243-3.206-10.48c-1.988-2.371-4.113-4.614-5.902-7.099c-3.969-5.514-7.769-11.147-11.63-16.723
				c6.492-3.5,15.956-1.745,23.25,3.919c16.289,12.648,21.054,29.837,18.115,49.123c-1.951,12.805-6.083,25.286-9.454,37.854
				C569.104,591.271,567.456,593.592,566.249,596.03z"/>
			<path fill="#FFFFFF" stroke="#4A4A4A" stroke-miterlimit="10" d="M447.586,471.268c30.744,6.836,61.487,13.67,92.23,20.506
				c-0.068,0.518-0.138,1.035-0.205,1.553c-0.877,0.236-1.86,0.294-2.607,0.745c-1.49,0.898-2.852,2.014-4.266,3.04
				c0.956,1.231,1.904,2.471,2.869,3.695c4.428,5.627,8.86,11.251,13.566,17.227c-5.396,1.762-9.395,3.171-13.468,4.313
				c-0.867,0.243-2.249-0.192-2.983-0.807c-7.955-6.646-15.464-13.89-23.823-19.968c-8.436-6.133-17.598-11.296-26.644-16.535
				c-2.688-1.556-6.13-1.747-9.095-2.9c-3.489-1.356-6.819-3.119-10.248-4.637c-4.449-1.97-8.935-3.857-13.385-5.824
				c-0.736-0.326-1.373-0.876-2.056-1.322C447.511,470.658,447.549,470.963,447.586,471.268z"/>
			<path fill="#FFFFFF" stroke="#4A4A4A" stroke-miterlimit="10" d="M449.167,447.558c-0.498,7.988-7.394,16.636-14.933,17.575
				c-1.488,0.187-4.309-1.479-4.717-2.832c-3.442-11.411-11.815-18.389-21.217-24.513c-3.333-2.171-6.952-3.923-10.164-6.249
				c-0.845-0.612-1.388-3.26-0.826-3.93c3.254-3.885,22.645-8.265,27.312-6.087c8.827,4.116,16.604,9.718,21.781,18.185
				C447.819,442.021,448.271,444.925,449.167,447.558z"/>
			<path fill="#FFFFFF" stroke="#4A4A4A" stroke-miterlimit="10" d="M303.132,471.157c-16.748-5.588-30.945-35.044-26.957-63.117
				c3.787,2.547,7.365,5.072,11.062,7.413c5.958,3.772,12.349,6.23,19.562,6.046c2.392-0.062,3.73,1.142,2.177,3.375
				c-7.768,11.169-9.208,23.722-8.15,36.78C301.065,464.604,302.211,467.48,303.132,471.157z"/>
			<path fill="#FFFFFF" stroke="#4A4A4A" stroke-miterlimit="10" d="M387.241,421.334c16.136-0.626,24.542-15.358,24.917-28.47
				c0.178-6.213-2.943-11.493-8.686-13.98c-5.76-2.495-10.74,0.603-15.21,4.228c0.515-4.762,6.831-11.96,11.588-12.316
				c9.92-0.743,19.781-0.5,29.125,3.778c2.479,1.136,3.14,2.442,2.236,5.011c-5.586,15.892-14.474,29.429-28.67,38.82
				C398.105,421.34,392.915,423.869,387.241,421.334z"/>
			<path fill="#FFFFFF" stroke="#4A4A4A" stroke-miterlimit="10" d="M388.346,387.552c7.987-7.661,14.632-8.477,18.628-1.576
				c2.258,3.898,2.195,10.046,1.168,14.741c-1.82,8.313-8.013,13.582-16.097,15.975c-4.156,1.229-8.329,0.248-11.163-3.57
				c-2.626-3.54-2.928-10.312-0.4-13.586c0.744-0.964,2.602-1.746,3.734-1.522c0.905,0.18,1.961,1.945,2.119,3.119
				c0.523,3.877,0.05,8.397,5.316,9.189c4.302,0.646,8.015-2.99,9.377-8.425c0.36-1.441,0.632-2.906,1.005-4.346
				c1.23-4.743-1.34-8.138-6.308-8.582C393.485,388.77,391.282,388.132,388.346,387.552z"/>
			<path fill="#FFFFFF" stroke="#4A4A4A" stroke-miterlimit="10" d="M256.322,529.342c6.101-13.483,27.326-15.052,32.877-3.886
				c1.119,2.25,1.466,5.008,1.615,7.562c0.072,1.24-0.838,3.066-1.864,3.665c-0.746,0.436-2.555-0.486-3.646-1.187
				c-7.527-4.836-15.888-6.323-24.634-6.354C259.457,529.138,258.241,529.25,256.322,529.342z"/>
			<path fill="#FFFFFF" stroke="#4A4A4A" stroke-miterlimit="10" d="M399.811,365.607c7.452-7.393,14.725-13.845,25.421-14.267
				c2.399-0.095,5.701-2.662,6.814,2.654c1.314,6.271,2.314,7.7-4.988,9.959c-3.275,1.013-6.815,1.421-10.261,1.585
				C411.454,365.794,406.089,365.607,399.811,365.607z"/>
			<path fill="#FFFFFF" stroke="#4A4A4A" stroke-miterlimit="10" d="M546.369,535.959c-3.795-4.096-6.655-7.182-9.616-10.376
				c3.215-3.696,7.897-4.646,12.019-3.473c1.955,0.557,4.148,5.266,3.746,7.678C552.126,532.124,548.543,533.927,546.369,535.959z"
				/>
			<path fill="#FFFFFF" stroke="#4A4A4A" stroke-miterlimit="10" d="M554.925,549.802c-2.629-3.825-5.259-7.649-8.373-12.18
				c3.061-1.125,5.099-1.875,7.789-2.864c0.829,5.193,1.537,9.631,2.246,14.068C556.033,549.152,555.479,549.477,554.925,549.802z"
				/>
			<path fill="#FFFFFF" stroke="#4A4A4A" stroke-miterlimit="10" d="M383.438,394.623c1.188-3.317,2.5-6.426,6.215-4.903
				c1.359,0.559,2.896,4.636,2.296,5.333C389.525,397.863,386.464,396.996,383.438,394.623z"/>
			<path stroke="#4A4A4A" stroke-miterlimit="10" d="M375.505,321.43c1.985,4.326,4.638,8.489,5.749,13.029
				c0.914,3.734,2.022,4.457,5.304,3.08c3.747-1.572,7.565-2.972,12.632-4.944c-4.088,7.663-11.264,7.966-16.708,11.869
				c4.208,0.216,8.416,0.433,12.625,0.648c0.066,0.55,0.132,1.101,0.198,1.65c-3.19,0.552-6.368,1.407-9.579,1.566
				c-2.879,0.142-4.403,0.297-5.453,3.881c-4.58,15.627-11.965,29.957-24.475,40.684c-5.905,5.063-12.872,9.931-21.548,8.488
				c-4.1-0.681-7.992-2.614-12.238-4.067c0.703,3.679,1.453,7.604,2.187,11.44c15.877,2.862,21.917,8.99,23.5,24.388
				c-0.69-1.73-1.125-3.628-2.118-5.162c-3.014-4.658-5.454-10.14-9.577-13.521c-6.067-4.976-12.529-1.738-18.275,2.177
				c0.008,0.01,0.144,0.159,0.151,0.168c4.428-8.384,2.439-16.66-0.836-24.699c-5.217-12.804-12.297-24.211-25.399-30.499
				c-5.632-2.703-11.32-5.292-16.853-8.186c12.947,2.718,24.499,8.199,33.984,17.777c1.669-6.473,0.012-9.537-11.292-20.879
				c7.698,0.428,14.897,12.879,13.671,18.387c-1.142,5.124,1.126,7.739,3.951,10.61c2.473-7.57,4.318-15.374,7.537-22.563
				c4.716-10.534,11.166-20.017,21.247-26.396c-3.031,3.522-6.062,7.046-9.516,11.06c7.547-1.214,14.473-2.22,21.354-3.473
				c4.507-0.82,9.241-1.336,13.363-3.149C378.278,330.752,378.148,330.456,375.505,321.43z M378.8,347.998
				c-11.315-3.003-22.034-6.516-33.853-4.675c-9.484,1.477-17.362,4.041-19.324,15.083c2.057-1.57,3.481-3.842,5.446-5.457
				c3.916-3.218,8.452-5.397,13.64-3.717c10.557,3.418,14.659,14.077,9.324,23.979c-5.911,10.971-13.152,20.549-26.416,24.218
				c3.375,1.416,7.388,3.568,10.002,2.451c6.613-2.828,13.816-5.981,18.586-11.066C366.873,377.446,375.336,364.348,378.8,347.998z
				 M325.826,364.366c-9.812,6.987-9.793,18.535-4.282,29.869c10.169,0.812,17.801-3.931,23.566-11.62
				c2.369-3.16,2.854-7.676,4.978-11.089c2.228-3.581,2.478-6.598,1.058-10.593c-1.427-4.015-2.731-7.729-7.372-8.318
				c-4.977-0.631-9.271,0.945-12.636,6.144c2.691,0.615,4.844,1.201,7.032,1.587c3.882,0.686,6.889,2.785,6.536,6.784
				c-0.553,6.271-2.957,11.957-8.979,15.135c-5.055,2.668-8.786,0.315-9.069-5.458C326.459,372.771,326.124,368.744,325.826,364.366
				z M370.091,339.099c9.75,0.71,10.571-0.104,8.005-7.308C375.587,334.082,373.13,336.325,370.091,339.099z M328.082,368.504
				c6.424,0.041,4.129-4.455,4.48-7.738C327.233,360.717,326.992,361.159,328.082,368.504z"/>
			<path fill="#FFFFFF" stroke="#4A4A4A" stroke-miterlimit="10" d="M375.505,321.43c2.643,9.026,2.773,9.322-6.417,13.364
				c-4.122,1.813-8.855,2.329-13.363,3.149c-6.881,1.252-13.807,2.259-21.354,3.473c3.454-4.014,6.485-7.537,9.516-11.061
				c0.231-0.173,0.447-0.362,0.648-0.57c1.312-0.655,2.617-1.324,3.938-1.962c5.271-2.547,10.363-5.659,15.885-7.418
				c3.487-1.111,8.01-3.358,11.289,1.196L375.505,321.43z"/>
			<path stroke="#4A4A4A" stroke-miterlimit="10" d="M343.265,304.85c0.808-1.021,1.483-2.193,2.444-3.042
				c7.305-6.442,14.364-13.221,22.1-19.106c7.085-5.39,15.136-9.014,24.512-6.27c5.346,1.565,8.676,10.143,5.612,14.688
				c-0.454,0.673-2.916,1.019-3.19,0.63c-3.112-4.42-7.236-7.678-12.565-6.149c-6.236,1.789-12.307,4.553-18.001,7.704
				c-4.881,2.701-9.076,6.621-13.688,9.84c-1.82,1.271-3.947,2.103-5.936,3.135C344.125,305.802,343.695,305.326,343.265,304.85z"/>
			<path stroke="#4A4A4A" stroke-miterlimit="10" d="M434.189,312.126c0.644-2.251,0.604-4.824,1.812-5.725
				c1.895-1.413,4.79-2.646,6.979-2.276c6.154,1.035,9.781,6.991,9.57,13.83c-0.236,7.676-2.09,15.307-3.344,22.939
				c-0.109,0.662-0.986,1.197-2.63,3.074c0-6.713,0-12.009,0-17.305c0-1.991,0.053-3.983-0.015-5.972
				C446.316,313.395,443.32,311.072,434.189,312.126z"/>
			<path stroke="#4A4A4A" stroke-miterlimit="10" d="M375.647,321.601c-3.279-4.555-7.802-2.308-11.289-1.196
				c-5.522,1.76-10.615,4.871-15.885,7.418c-1.319,0.638-2.625,1.307-3.938,1.962c5.058-6.457,12.399-9.122,19.804-11.29
				c4.414-1.292,9.188-1.35,13.801-1.961c0.106,0.498,0.212,0.996,0.319,1.494C377.522,319.219,376.584,320.41,375.647,321.601z"/>
			<path stroke="#4A4A4A" stroke-miterlimit="10" d="M367.123,269.272c7.026-5.632,13.623-12.551,24.121-10.447
				C381.668,258.824,374.971,265.201,367.123,269.272z"/>
			<path stroke="#4A4A4A" stroke-miterlimit="10" d="M454.227,304.094c-3.334-6.106-3.084-13.336-10.589-15.042
				C449.279,287.688,454.82,295.149,454.227,304.094z"/>
			<path stroke="#4A4A4A" stroke-miterlimit="10" d="M447.002,854.887c3.682,10.231,3.957,22.528,19.458,24.526
				c-7.462,1.698-13.164-0.799-17.389-7.56C445.847,866.692,443.827,861.027,447.002,854.887z"/>
			<path stroke="#4A4A4A" stroke-miterlimit="10" d="M271.738,613.87c-7.278-0.453-12.329,7.446-19.205,6.187
				c6.292-4.574,12.745-9.269,19.927-14.491c-1.789,2.491-3.153,4.393-5.006,6.972C269.052,613.034,270.395,613.452,271.738,613.87z
				"/>
			<path fill="#FFFFFF" stroke="#4A4A4A" stroke-miterlimit="10" d="M378.8,347.998c-3.464,16.35-11.927,29.448-22.594,40.818
				c-4.77,5.084-11.973,8.237-18.586,11.065c-2.614,1.118-6.627-1.035-10.002-2.451c13.264-3.669,20.505-13.247,26.416-24.218
				c5.335-9.902,1.233-20.562-9.324-23.979c-5.188-1.681-9.724,0.499-13.64,3.717c-1.965,1.615-3.39,3.887-5.446,5.457
				c1.962-11.043,9.84-13.607,19.324-15.083C356.766,341.482,367.485,344.995,378.8,347.998z"/>
			<path fill="#FFFFFF" stroke="#4A4A4A" stroke-miterlimit="10" d="M325.826,364.366c0.298,4.377,0.634,8.405,0.832,12.44
				c0.284,5.774,4.015,8.127,9.069,5.458c6.023-3.179,8.426-8.863,8.979-15.135c0.353-3.999-2.654-6.099-6.536-6.784
				c-2.188-0.386-4.341-0.972-7.032-1.587c3.365-5.198,7.659-6.774,12.636-6.144c4.641,0.589,5.944,4.304,7.372,8.318
				c1.419,3.995,1.17,7.012-1.058,10.593c-2.124,3.413-2.609,7.929-4.978,11.089c-5.765,7.688-13.396,12.432-23.566,11.62
				C316.032,382.901,316.013,371.354,325.826,364.366z"/>
			<path fill="#FFFFFF" stroke="#4A4A4A" stroke-miterlimit="10" d="M370.091,339.099c3.039-2.773,5.496-5.017,8.005-7.308
				C380.662,338.996,379.84,339.81,370.091,339.099z"/>
			<path fill="#FFFFFF" stroke="#4A4A4A" stroke-miterlimit="10" d="M328.082,368.504c-1.09-7.345-0.849-7.787,4.48-7.738
				C332.211,364.049,334.506,368.545,328.082,368.504z"/>
		</g>
	</g>
</g>
<g id="brackets">
	<text transform="matrix(1 0 0 1 580.0649 901.9883)" fill="#4A4A4A" font-family="'MyriadPro-Regular'" font-size="979.6733">{</text>
</g>
<g id="brackets2">
	<text transform="matrix(1 0 0 1 1891.71 901.9883)" fill="#4A4A4A" font-family="'MyriadPro-Regular'" font-size="979.6733">}</text>
</g>
<g id="awesome">
	<text transform="matrix(1 0 0 1 840.7603 447.9561)" fill="#4A4A4A" font-family="'ColonnaMT'" font-size="289.7141">awesome</text>
</g>
<g id="less">
	<text transform="matrix(1 0 0 1 840.7603 930.0674)" fill="#4A4A4A" font-family="'ColonnaMT'" font-size="726.6689">less</text>
</g>
</svg>
